<?xml version="1.0" encoding="utf-8"?>
<!-- Generator: Adobe Illustrator 26.0.2, SVG Export Plug-In . SVG Version: 6.00 Build 0)  -->
<svg version="1.1" id="Layer_1" xmlns="http://www.w3.org/2000/svg" xmlns:xlink="http://www.w3.org/1999/xlink" x="0px" y="0px"
	 viewBox="0 0 32 24" style="enable-background:new 0 0 32 24;" xml:space="preserve">
<style type="text/css">
	.st0{fill:#FFFFFF;}
</style>
<g>
	<path class="st0" d="M27.95,5.73c-0.62-1.36-1.96-2.24-3.46-2.24h-5.05c-1.34,0-2.51,0.69-3.19,1.74
		c-0.68-1.04-1.85-1.74-3.19-1.74H8.01c-1.49,0-2.85,0.9-3.46,2.25c-0.03,0-0.06-0.01-0.1-0.01H1.47V18.4h29.07V5.73H27.95z
		 M19.44,4.73h5.05c0.79,0,1.51,0.36,1.99,0.95c-1.12,0.43-1.91,1.51-1.91,2.77v3.98h-7.7V7.3C16.87,5.89,18.02,4.73,19.44,4.73z
		 M8.01,4.73h5.05c1.42,0,2.57,1.15,2.57,2.57v5.13h-8.2V8.45c0-1.1-0.6-2.08-1.54-2.6C6.36,5.17,7.16,4.73,8.01,4.73z M29.79,17.65
		H2.21V6.47h2.04c0,0,1.93-0.36,1.93,1.98v5.23h9.44h1.24h8.94V8.45c0-2.34,2.45-1.98,2.45-1.98h1.53V17.65z"/>
	<rect x="3.33" y="18.11" class="st0" width="2.48" height="2.4"/>
	<rect x="26.19" y="18.11" class="st0" width="2.48" height="2.4"/>
</g>
</svg>
