<?xml version="1.0" encoding="utf-8"?>
<!-- Generator: Adobe Illustrator 26.0.2, SVG Export Plug-In . SVG Version: 6.00 Build 0)  -->
<svg version="1.1" id="Layer_1" xmlns="http://www.w3.org/2000/svg" xmlns:xlink="http://www.w3.org/1999/xlink" x="0px" y="0px"
	 viewBox="0 0 24 24" style="enable-background:new 0 0 24 24;" xml:space="preserve">
<style type="text/css">
	.st0{fill:#FFFFFF;}
</style>
<g>
	<g>
		<path class="st0" d="M11.5,8.76c-1.03,0-1.86-0.84-1.86-1.86s0.84-1.86,1.86-1.86s1.86,0.84,1.86,1.86S12.52,8.76,11.5,8.76z
			 M11.5,5.78c-0.62,0-1.12,0.5-1.12,1.12s0.5,1.12,1.12,1.12c0.62,0,1.12-0.5,1.12-1.12S12.11,5.78,11.5,5.78z"/>
	</g>
	<g>
		<path class="st0" d="M17.71,18.45c-0.1,0-0.2-0.04-0.27-0.12l-3.37-3.61h-2.94V8.63c0-0.21,0.17-0.37,0.37-0.37
			s0.37,0.17,0.37,0.37v5.34h2.52l3.59,3.85c0.14,0.15,0.13,0.39-0.02,0.53C17.89,18.41,17.8,18.45,17.71,18.45z"/>
	</g>
	<g>
		<path class="st0" d="M15.72,11.49h-3.98c-0.21,0-0.37-0.17-0.37-0.37s0.17-0.37,0.37-0.37h3.98c0.21,0,0.37,0.17,0.37,0.37
			S15.93,11.49,15.72,11.49z"/>
	</g>
	<g>
		<path class="st0" d="M10.01,18.97c-2.28,0-4.13-1.85-4.13-4.13c0-2.16,1.69-3.97,3.85-4.11c0.21-0.01,0.41,0.15,0.42,0.37
			S10,11.51,9.78,11.53c-1.74,0.12-3.11,1.57-3.11,3.32c0,1.83,1.49,3.33,3.33,3.33c1.58,0,2.95-1.12,3.26-2.66
			c0.04-0.22,0.26-0.36,0.47-0.31c0.22,0.04,0.36,0.25,0.31,0.47C13.66,17.58,11.96,18.97,10.01,18.97z"/>
	</g>
</g>
</svg>
