<?xml version="1.0" encoding="utf-8"?>
<!-- Generator: Adobe Illustrator 26.0.2, SVG Export Plug-In . SVG Version: 6.00 Build 0)  -->
<svg version="1.1" id="Layer_1" xmlns="http://www.w3.org/2000/svg" xmlns:xlink="http://www.w3.org/1999/xlink" x="0px" y="0px"
	 viewBox="0 0 42 24" style="enable-background:new 0 0 42 24;" xml:space="preserve">
<style type="text/css">
	.st0{fill:#FFFFFF;}
</style>
<g>
	<path class="st0" d="M38.41,5.73c-0.62-1.36-1.96-2.24-3.46-2.24h-5.05c-1.34,0-2.51,0.69-3.19,1.74
		c-0.68-1.04-1.85-1.74-3.19-1.74h-4.3c-1.43,0-2.66,0.8-3.32,1.97c-0.65-1.17-1.89-1.97-3.32-1.97H7.55c-1.49,0-2.85,0.9-3.46,2.25
		c-0.03,0-0.06-0.01-0.09-0.01H1V18.4h40V5.73H38.41z M29.91,4.73h5.05c0.79,0,1.51,0.36,1.99,0.95c-1.12,0.43-1.91,1.51-1.91,2.77
		v3.98h-7.7V7.3C27.34,5.89,28.49,4.73,29.91,4.73z M16.65,7.3c0-1.42,1.15-2.57,2.57-2.57h4.3c1.42,0,2.57,1.15,2.57,2.57v5.13
		h-9.44V7.3z M7.55,4.73h5.05c1.42,0,2.57,1.15,2.57,2.57v5.13h-8.2V8.45c0-1.1-0.6-2.08-1.54-2.6C5.9,5.17,6.69,4.73,7.55,4.73z
		 M40.25,17.65H1.75V6.47h2.04c0,0,1.93-0.36,1.93,1.98v5.23h9.69h0.99h9.69h1.24h8.94V8.45c0-2.34,2.45-1.98,2.45-1.98h1.53V17.65z
		"/>
	<rect x="2.86" y="18.11" class="st0" width="2.48" height="2.4"/>
	<rect x="36.65" y="18.11" class="st0" width="2.48" height="2.4"/>
</g>
</svg>
