<svg width="16" height="12" viewBox="0 0 16 12" fill="none" xmlns="http://www.w3.org/2000/svg">
<path d="M2.39996 7.475V3.1C2.39996 1.9401 3.34006 1 4.49996 1H11.5C12.6599 1 13.6 1.9401 13.6 3.1V7.475" fill="#8B919B"/>
<path d="M2.39996 7.475V3.1C2.39996 1.9401 3.34006 1 4.49996 1H11.5C12.6599 1 13.6 1.9401 13.6 3.1V7.475" stroke="#2E3239" stroke-width="1.2" stroke-linecap="round" stroke-linejoin="round"/>
<path d="M12.2 7.3H3.8V5.55C3.8 4.9704 3.3296 4.5 2.75 4.5H2.05C1.4704 4.5 1 4.9704 1 5.55V8.7C1 9.4735 1.6265 10.1 2.4 10.1H13.6C14.3735 10.1 15 9.4735 15 8.7V5.55C15 4.9704 14.5296 4.5 13.95 4.5H13.25C12.6704 4.5 12.2 4.9704 12.2 5.55V7.3Z" fill="#8B919B" stroke="#2E3239" stroke-width="1.2" stroke-linecap="round" stroke-linejoin="round"/>
<path d="M3.79993 9.05V11.15" stroke="#8B919B" stroke-width="1.4" stroke-linecap="round" stroke-linejoin="round"/>
<path d="M12.2001 9.05L12.2001 11.15" stroke="#8B919B" stroke-width="1.4" stroke-linecap="round" stroke-linejoin="round"/>
</svg>
