<svg width="16" height="16" viewBox="0 0 16 16" fill="none" xmlns="http://www.w3.org/2000/svg">
<path d="M8.01716 9.28647H7.98279C7.74549 9.28647 7.5531 9.09408 7.5531 8.85678C7.5531 8.61948 7.74549 8.42709 7.98279 8.42709H8.01716C8.25447 8.42709 8.44685 8.61948 8.44685 8.85678C8.44685 9.09408 8.25447 9.28647 8.01716 9.28647Z" fill="#2E3239"/>
<path d="M1 7V12H15V7L14 6H13V4L12.5 3H3.5L3 4V6H2L1 7Z" fill="#8B919B"/>
<path d="M13.0417 9.28646C12.8044 9.28646 12.612 9.09408 12.612 8.85678V3.98698C12.612 3.75005 12.4193 3.5573 12.1823 3.5573H3.81775C3.58082 3.5573 3.38806 3.75005 3.38806 3.98698V8.85678C3.38806 9.09408 3.19568 9.28646 2.95837 9.28646C2.72107 9.28646 2.52869 9.09408 2.52869 8.85678V3.98698C2.52869 3.2762 3.10696 2.69792 3.81775 2.69792H12.1823C12.8931 2.69792 13.4714 3.2762 13.4714 3.98698V8.85678C13.4714 9.09408 13.279 9.28646 13.0417 9.28646Z" fill="#2E3239"/>
<path d="M14.0494 12.724H1.95575C1.24496 12.724 0.666687 12.1457 0.666687 11.4349V7.02344C0.666687 6.6568 0.811434 6.31408 1.07426 6.05839C1.337 5.80278 1.68402 5.66717 2.0506 5.67763C2.78805 5.69785 3.38804 6.31013 3.38804 7.04251V10.0312H12.612V7.04251C12.612 6.31013 13.212 5.69782 13.9494 5.6776C14.3157 5.66743 14.6631 5.80275 14.9258 6.05841C15.1886 6.31408 15.3334 6.65683 15.3334 7.02344V11.4349C15.3334 12.1416 14.7616 12.7174 14.0564 12.7239C14.0541 12.7239 14.0517 12.724 14.0494 12.724ZM2.01313 6.53649C1.88534 6.53649 1.7652 6.58513 1.67353 6.67436C1.57843 6.76683 1.52606 6.89083 1.52606 7.02344V11.4349C1.52606 11.6718 1.71882 11.8646 1.95575 11.8646H14.0443C14.2812 11.8646 14.474 11.6718 14.474 11.4349V7.02344C14.474 6.89083 14.4216 6.76686 14.3265 6.67433C14.2315 6.58186 14.1061 6.5325 13.973 6.53663C13.7058 6.54393 13.4714 6.78035 13.4714 7.04248V10.4609C13.4714 10.6982 13.279 10.8906 13.0417 10.8906H2.95835C2.72105 10.8906 2.52867 10.6982 2.52867 10.4609V7.04251C2.52867 6.78038 2.29426 6.54399 2.02702 6.53666C2.02238 6.53654 2.01774 6.53649 2.01313 6.53649ZM13.9612 6.10711H13.9615H13.9612Z" fill="#2E3239"/>
<path d="M8.00004 10.8906H2.95837C2.72107 10.8906 2.52869 10.6982 2.52869 10.4609V8.16928C2.52869 7.93198 2.72107 7.73959 2.95837 7.73959H7.14067C7.85145 7.73959 8.42973 8.31787 8.42973 9.02866V10.4609C8.42973 10.6982 8.23734 10.8906 8.00004 10.8906ZM3.38806 10.0313H7.57035V9.02866C7.57035 8.79173 7.3776 8.59897 7.14067 8.59897H3.38806V10.0313Z" fill="#2E3239" stroke="#2E3239" stroke-width="0.2"/>
<path d="M13.0417 10.8906H8C7.7627 10.8906 7.57031 10.6982 7.57031 10.4609V9.02866C7.57031 8.31787 8.14859 7.73959 8.85938 7.73959H13.0417C13.279 7.73959 13.4714 7.93198 13.4714 8.16928V10.4609C13.4714 10.6982 13.279 10.8906 13.0417 10.8906ZM8.42969 10.0313H12.612V8.59897H8.85938C8.62245 8.59897 8.42969 8.79173 8.42969 9.02866V10.0313Z" fill="#2E3239" stroke="#2E3239" stroke-width="0.2"/>
<rect x="12" y="11.5" width="1" height="2.5" rx="0.5" fill="#8B919B" stroke="#8B919B" stroke-width="0.4"/>
<rect x="3" y="11.5" width="1" height="2.5" rx="0.5" fill="#8B919B" stroke="#8B919B" stroke-width="0.4"/>
</svg>
