<svg width="16" height="16" viewBox="0 0 16 16" fill="none" xmlns="http://www.w3.org/2000/svg">
<path d="M0.5 6L3 12H13L15.5 6L15 5H14H13L12 4L9 3H6L3 5H2H1L0.5 6Z" fill="#8B919B"/>
<path d="M5.99845 6.21708C6.25745 6.21708 6.46742 6.00712 6.46742 5.74811C6.46742 5.48911 6.25745 5.27914 5.99845 5.27914C5.73944 5.27914 5.52948 5.48911 5.52948 5.74811C5.52948 6.00712 5.73944 6.21708 5.99845 6.21708Z" fill="#2E3239" stroke="#2E3239" stroke-width="0.3"/>
<path d="M10.0016 6.21708C10.2606 6.21708 10.4706 6.00712 10.4706 5.74811C10.4706 5.48911 10.2606 5.27914 10.0016 5.27914C9.74262 5.27914 9.53265 5.48911 9.53265 5.74811C9.53265 6.00712 9.74262 6.21708 10.0016 6.21708Z" fill="#2E3239" stroke="#2E3239" stroke-width="0.3"/>
<path d="M8.00004 5.71679C8.25904 5.71679 8.469 5.50683 8.469 5.24782C8.469 4.98882 8.25904 4.77885 8.00004 4.77885C7.74103 4.77885 7.53107 4.98882 7.53107 5.24782C7.53107 5.50683 7.74103 5.71679 8.00004 5.71679Z" fill="#2E3239" stroke="#2E3239" stroke-width="0.3"/>
<path d="M12.0035 9.47233C11.8979 9.47233 11.7953 9.43677 11.7114 9.36823C11.6666 9.33445 10.4875 8.46911 7.99991 8.46911C5.44188 8.46911 4.301 9.35811 4.28982 9.36708C4.17838 9.4563 4.03232 9.48989 3.8931 9.4583C3.75385 9.42677 3.6366 9.33355 3.57444 9.20502L1.94003 5.82545C1.86722 5.67489 1.8801 5.49692 1.97378 5.35839C3.27878 3.4287 5.44716 2.27667 7.77416 2.27667H8.22578C10.5528 2.27667 12.7212 3.4287 14.0262 5.35839C14.1198 5.49695 14.1327 5.67486 14.0599 5.82545L12.4254 9.20498C12.3628 9.33458 12.2467 9.43036 12.1061 9.46114C12.072 9.46864 12.0376 9.47233 12.0035 9.47233ZM7.99994 7.53086C9.92978 7.53086 11.1756 8.00495 11.8054 8.33208L13.0947 5.66624C11.9523 4.12652 10.1517 3.21495 8.22572 3.21495H7.77413C5.84819 3.21495 4.04757 4.12652 2.90525 5.66624L4.19447 8.33208C4.82435 8.00495 6.0701 7.53086 7.99994 7.53086Z" fill="#2E3239" stroke="#2E3239" stroke-width="0.3"/>
<path d="M13.004 12.4723H2.99606C2.80421 12.4723 2.63175 12.3555 2.5605 12.1774L2.06162 10.9302C1.82984 10.3797 1.65012 9.95151 1.50631 9.60905C0.93434 8.24692 0.93434 8.24692 0.486184 7.26754C0.38759 7.05204 0.267434 6.78954 0.11509 6.45548C0.113121 6.45117 0.111215 6.44692 0.109434 6.44254C-0.116379 5.90523 0.0136524 5.30498 0.44059 4.91332C0.771277 4.6112 1.24334 4.48413 1.70412 4.57282C2.16831 4.66213 2.56272 4.95795 2.75909 5.36413C2.79218 5.43232 3.74868 7.41011 4.19453 8.33204C4.82437 8.00492 6.07015 7.53082 7.99996 7.53082C9.92978 7.53082 11.1756 8.00492 11.8054 8.33204C12.2516 7.40936 13.2094 5.42888 13.2412 5.36348C13.4372 4.95795 13.8316 4.66213 14.2958 4.57279C14.7567 4.48416 15.2287 4.6112 15.5587 4.91266C15.9864 5.30491 16.1163 5.90517 15.8905 6.44248C15.8887 6.44682 15.8868 6.4511 15.8848 6.45535C15.7331 6.78807 15.6115 7.05429 15.5116 7.27285C15.0562 8.2692 15.0562 8.2692 14.7127 9.0887C14.6226 9.30367 14.509 9.57448 14.3579 9.93336C14.2798 10.1188 14.2178 10.2659 14.1668 10.3868C13.9342 10.9384 13.9342 10.9384 13.6902 11.5496C13.6262 11.7101 13.5454 11.9125 13.4395 12.1773C13.3683 12.3555 13.1958 12.4723 13.004 12.4723ZM3.31365 11.534H12.6863C12.7375 11.4059 12.7811 11.2965 12.8189 11.2019C13.0663 10.5822 13.0663 10.5822 13.3024 10.0223C13.3533 9.90158 13.4153 9.75461 13.4932 9.56939C13.6442 9.21104 13.7575 8.94064 13.8475 8.72604C14.1968 7.89286 14.1968 7.89286 14.6583 6.88298C14.7573 6.66623 14.8778 6.40267 15.0278 6.07373C15.0817 5.94054 15.0826 5.74913 14.9252 5.60479C14.8136 5.50282 14.6445 5.46129 14.4731 5.4942C14.2985 5.52779 14.1536 5.63185 14.0856 5.77257C14.0441 5.85798 12.4406 9.1737 12.4255 9.20498C12.3629 9.33458 12.2468 9.43039 12.1062 9.46114C11.9662 9.49183 11.8225 9.45892 11.7115 9.3682C11.6671 9.33479 10.4881 8.46907 8 8.46907C5.51256 8.46907 4.33346 9.33433 4.2885 9.36817C4.17759 9.45889 4.03387 9.49179 3.89378 9.46114C3.75315 9.43036 3.63709 9.33448 3.57443 9.20492C3.56043 9.17589 1.95796 5.86235 1.91471 5.7732C1.84634 5.63185 1.7015 5.52779 1.52684 5.4942C1.35565 5.4612 1.18637 5.50282 1.07406 5.60542C0.917371 5.74913 0.918246 5.94054 0.972121 6.0737C1.12262 6.4037 1.24153 6.66354 1.33928 6.87707C1.79365 7.86995 1.79365 7.86995 2.37134 9.24583C2.5154 9.58892 2.69556 10.018 2.928 10.5702C2.92909 10.5727 2.93015 10.5753 2.93118 10.5779L3.31365 11.534ZM15.4581 6.26076H15.4584H15.4581Z" fill="#2E3239"/>
<rect x="10.5" y="11" width="1" height="2.5" rx="0.5" fill="#8B919B" stroke="#8B919B" stroke-width="0.4"/>
<rect x="4.5" y="11" width="1" height="2.5" rx="0.5" fill="#8B919B" stroke="#8B919B" stroke-width="0.4"/>
</svg>
