<?xml version="1.0" encoding="utf-8"?>
<!-- Generator: Adobe Illustrator 26.0.2, SVG Export Plug-In . SVG Version: 6.00 Build 0)  -->
<svg version="1.1" id="Layer_1" xmlns="http://www.w3.org/2000/svg" xmlns:xlink="http://www.w3.org/1999/xlink" x="0px" y="0px"
	 viewBox="0 0 24 24" style="enable-background:new 0 0 24 24;" xml:space="preserve">
<style type="text/css">
	.st0{fill:#FFFFFF;}
</style>
<path class="st0" d="M23.55,10.27c0-1.58-1.28-2.86-2.86-2.86c-0.19,0-0.38,0.02-0.56,0.06V7.29c0-1.93-1.57-3.5-3.5-3.5H7.36
	c-1.93,0-3.5,1.57-3.5,3.5v0.18C3.69,7.43,3.5,7.41,3.3,7.41c-1.58,0-2.86,1.28-2.86,2.86v8.32h4.35v1.62h2v-1.62h10.42v1.62h2
	v-1.62h4.35V10.27z M4.73,7.29c0-1.45,1.18-2.64,2.64-2.64h9.27c1.45,0,2.64,1.18,2.64,2.64v0.44c-0.91,0.51-1.49,1.48-1.49,2.54
	v2.47H6.22v-2.47c0-1.06-0.58-2.03-1.49-2.54V7.29z M22.81,17.85H1.19v-7.58c0-1.16,0.95-2.11,2.11-2.11c0.2,0,0.38,0.04,0.56,0.09
	v0.03l0.26,0.11c0.75,0.33,1.23,1.07,1.23,1.88v3.33h0.06v0.02h13.17V13.6h0.06v-3.33c0-0.82,0.48-1.55,1.23-1.88l0.26-0.11V8.24
	c0.18-0.05,0.37-0.09,0.56-0.09c1.16,0,2.11,0.95,2.11,2.11V17.85z"/>
</svg>
