<svg width="16" height="16" viewBox="0 0 16 16" fill="none" xmlns="http://www.w3.org/2000/svg">
<path d="M7.33333 4.66667C8.06971 4.66667 8.66667 4.06971 8.66667 3.33333C8.66667 2.59695 8.06971 2 7.33333 2C6.59695 2 6 2.59695 6 3.33333C6 4.06971 6.59695 4.66667 7.33333 4.66667Z" stroke="#8B919B" stroke-width="1.2" stroke-linecap="round" stroke-linejoin="round"/>
<path d="M7.33331 4.66667V10H9.99998L12.6666 13.3333" stroke="#8B919B" stroke-width="1.2" stroke-linecap="round" stroke-linejoin="round"/>
<path d="M7.33331 7.33333H10.6666" stroke="#8B919B" stroke-width="1.2" stroke-linecap="round" stroke-linejoin="round"/>
<path d="M4.66669 7.66667C4.20179 7.87109 3.7901 8.17964 3.46343 8.56849C3.13676 8.95734 2.90385 9.41608 2.78269 9.90927C2.66153 10.4025 2.65536 10.9169 2.76466 11.4129C2.87396 11.9088 3.09581 12.373 3.41307 12.7696C3.73032 13.1661 4.13449 13.4845 4.59436 13.7C5.05422 13.9155 5.55747 14.0224 6.06523 14.0124C6.57299 14.0025 7.07166 13.876 7.52274 13.6426C7.97381 13.4093 8.3652 13.0754 8.66669 12.6667" stroke="#8B919B" stroke-width="1.2" stroke-linecap="round" stroke-linejoin="round"/>
</svg>
