<?xml version="1.0" encoding="utf-8"?>
<!-- Generator: Adobe Illustrator 26.0.2, SVG Export Plug-In . SVG Version: 6.00 Build 0)  -->
<svg version="1.1" id="Layer_1" xmlns="http://www.w3.org/2000/svg" xmlns:xlink="http://www.w3.org/1999/xlink" x="0px" y="0px"
	 viewBox="0 0 24 24" style="enable-background:new 0 0 24 24;" xml:space="preserve">
<style type="text/css">
	.st0{fill:#FFFFFF;}
</style>
<g>
	<g>
		<path class="st0" d="M16.39,16.69H7.61c-0.69,0-1.24-0.56-1.24-1.24v-0.51c0-0.69,0.56-1.24,1.24-1.24h8.77
			c0.69,0,1.24,0.56,1.24,1.24v0.51C17.63,16.13,17.07,16.69,16.39,16.69z M7.61,14.44c-0.27,0-0.49,0.22-0.49,0.49v0.51
			c0,0.27,0.22,0.49,0.49,0.49h8.77c0.27,0,0.49-0.22,0.49-0.49v-0.51c0-0.27-0.22-0.49-0.49-0.49H7.61z"/>
	</g>
	<g>
		<path class="st0" d="M16.88,14.44H7.12v-7.1c0-2.3,1.87-4.16,4.16-4.16h1.43c2.3,0,4.16,1.87,4.16,4.16V14.44z M7.87,13.69h8.26
			V7.34c0-1.88-1.53-3.41-3.41-3.41h-1.43c-1.88,0-3.41,1.53-3.41,3.41V13.69z"/>
	</g>
	<g>
		<path class="st0" d="M9.03,20.82H8.96c-0.6,0-1.09-0.49-1.09-1.09v-3.79h2.25v3.79C10.12,20.33,9.63,20.82,9.03,20.82z
			 M8.62,16.69v3.04c0,0.19,0.15,0.34,0.34,0.34h0.06c0.19,0,0.34-0.15,0.34-0.34v-3.04H8.62z"/>
	</g>
	<g>
		<path class="st0" d="M15.04,20.82h-0.06c-0.6,0-1.09-0.49-1.09-1.09v-3.79h2.25v3.79C16.13,20.33,15.64,20.82,15.04,20.82z
			 M14.63,16.69v3.04c0,0.19,0.15,0.34,0.34,0.34h0.06c0.19,0,0.34-0.15,0.34-0.34v-3.04H14.63z"/>
	</g>
	<g>
		<path class="st0" d="M7.49,16.69h-0.5c-0.76,0-1.38-0.62-1.38-1.38v-3.5c0-0.21,0.17-0.38,0.38-0.38s0.38,0.17,0.38,0.38v3.5
			c0,0.34,0.28,0.63,0.63,0.63h0.5c0.21,0,0.38,0.17,0.38,0.38S7.7,16.69,7.49,16.69z"/>
	</g>
	<g>
		<path class="st0" d="M7.49,12.19h-3c-0.21,0-0.38-0.17-0.38-0.38s0.17-0.38,0.38-0.38h3c0.21,0,0.38,0.17,0.38,0.38
			S7.7,12.19,7.49,12.19z"/>
	</g>
	<g>
		<path class="st0" d="M17.01,16.69h-0.5c-0.21,0-0.38-0.17-0.38-0.38s0.17-0.38,0.38-0.38h0.5c0.35,0,0.63-0.28,0.63-0.63v-3.5
			c0-0.21,0.17-0.38,0.38-0.38s0.38,0.17,0.38,0.38v3.5C18.38,16.08,17.77,16.69,17.01,16.69z"/>
	</g>
	<g>
		<path class="st0" d="M19.51,12.19h-3c-0.21,0-0.38-0.17-0.38-0.38s0.17-0.38,0.38-0.38h3c0.21,0,0.38,0.17,0.38,0.38
			S19.72,12.19,19.51,12.19z"/>
	</g>
</g>
</svg>
