<svg version="1.1" xmlns="http://www.w3.org/2000/svg" xmlns:xlink="http://www.w3.org/1999/xlink" x="0px" y="0px"
	 width="620.705px" height="620.705px" viewBox="0 0 620.705 620.705" style="enable-background:new 0 0 620.705 620.705;"
	 xml:space="preserve">
<g>
	<g>
		<defs>
			<rect id="SVGID_1_" x="78.522" width="463.661" height="620.705"/>
		</defs>
		<clipPath id="SVGID_2_">
			<use xlink:href="#SVGID_1_"  style="overflow:visible;"/>
		</clipPath>
		<path style="clip-path:url(#SVGID_2_);fill:#fff;" d="M525.609,511.596c-4.674,2.569-9.68,3.783-14.838,3.783
			c-12.571,0-25.295-7.424-32.292-20.156l-63.2-115.546H252.035c-0.91,0-1.811,0-2.721-0.142h-1.365
			c-25.167,0.919-46.68-18.327-48.354-43.632l-10.756-164.15c-1.659-25.77,17.886-48.05,43.669-49.719l9.675-0.593
			c25.789-1.688,48.05,17.73,49.738,43.485l2.863,45.319h99.608c12.732,0,23.029,11.515,23.029,25.604
			c0,14.103-10.307,25.618-23.029,25.618h-96.28l2.427,36.535h119.158c4.531,0,8.789,0.759,12.875,2.114
			c10.448,1.825,20.309,8.652,26.234,19.413l78.503,143.543C546.979,480.973,541.832,502.646,525.609,511.596L525.609,511.596z"/>
	</g>
	<path style="fill:#fff;" d="M237.983,0c29.998,0,54.308,24.314,54.308,54.308c0,29.993-24.31,54.312-54.308,54.312
		c-29.993,0-54.307-24.319-54.307-54.312C183.676,24.314,207.99,0,237.983,0L237.983,0z"/>
	<path style="fill:#fff;" d="M388.751,417.592h-163.24c-0.924,0-1.825,0-2.73-0.143h-1.36
		c-25.163,0.882-46.685-18.355-48.368-43.67l-6.978-106.552c-52.672,34.307-87.553,93.621-87.553,161.173
		c0,106.216,86.107,192.304,192.313,192.304c74.91,0,139.646-42.902,171.408-105.392L388.751,417.592L388.751,417.592z"/>
</g>
</svg>
