<?xml version="1.0" encoding="UTF-8"?>
<svg id="Layer_1" data-name="Layer 1" xmlns="http://www.w3.org/2000/svg" version="1.1" viewBox="0 0 129 129">
  <defs>
    <style>
      .cls-1 {
        fill: #000;
        stroke-width: 0px;
      }
    </style>
  </defs>
  <path class="cls-1" d="M64.6,6.5c-32,0-58.1,26-58.1,58.1,0,32.1,26,58,58.1,58s58-26,58-58S96.6,6.5,64.6,6.5ZM64.6,114.5c-27.5,0-49.9-22.4-49.9-49.9,0-27.5,22.4-49.9,49.9-49.9,27.5,0,49.9,22.4,49.9,49.9s-22.4,49.9-49.9,49.9Z"/>
  <path class="cls-1" d="M59.1,35.6c-.8-.8-1.8-1.2-2.9-1.2s-2.1.4-2.9,1.2c-1.6,1.6-1.6,4.2,0,5.8l23.5,23.5-23.5,23.5c-1.6,1.6-1.6,4.2,0,5.8s4.2,1.6,5.8,0l26.4-26.4c.8-.8,1.2-1.8,1.2-2.9s-.4-2.1-1.2-2.9l-26.4-26.4Z"/>
</svg>